<svg width="104" height="111" viewBox="0 0 104 111" fill="none" xmlns="http://www.w3.org/2000/svg">
<path d="M54.0319 46.1753V88.3328L22.7598 98.1603V56.2263L54.0319 46.1753Z" fill="url(#paint0_linear)" stroke="#1C75BC" stroke-miterlimit="10"/>
<path d="M22.0766 57.439L21.0059 98.4597L53.2421 108.505L53.7263 67.0563L22.0766 57.439Z" fill="white" stroke="#59AED3" stroke-miterlimit="10"/>
<path d="M54.0316 46.1753L53.9746 88.6637L85.2472 98.5721V56.2912L54.0316 46.1753Z" fill="url(#paint1_linear)" stroke="#1C75BC" stroke-miterlimit="10"/>
<path d="M86.1625 57.439V98.3109L53.2441 108.505L53.7307 66.8839L86.1625 57.439Z" fill="white" stroke="#59AED3" stroke-miterlimit="10"/>
<path d="M21.0071 56.5804L5.01758 46.1572L37.3703 35.771L54.0321 46.1572L21.0071 56.5804Z" fill="white" stroke="#1C75BC" stroke-miterlimit="10"/>
<path d="M54.0312 46.1572L69.9464 35.771L102 46.1572L86.1609 56.5427L54.0312 46.1572Z" fill="white" stroke="#1C75BC" stroke-miterlimit="10"/>
<path d="M5.0918 66.9658L21.007 56.5801L53.3972 66.9658L37.2213 77.3515L5.0918 66.9658Z" fill="white" stroke="#59AED3" stroke-miterlimit="10"/>
<path d="M53.584 66.9659L86.161 56.5425L102 67.3024L69.9471 77.3892L53.584 66.9659Z" fill="white" stroke="#59AED3" stroke-miterlimit="10"/>
<path opacity="0.7" d="M97.4817 106.081C97.4817 107.758 96.1219 109.117 94.446 109.117C92.7702 109.117 91.4102 107.758 91.4102 106.081C91.4102 104.405 92.7702 103.045 94.446 103.045C96.1219 103.045 97.4817 104.405 97.4817 106.081Z" fill="white" stroke="#1C75BC" stroke-width="2" stroke-miterlimit="10"/>
<path opacity="0.7" d="M99.312 93.7475C99.9362 93.7475 100.442 93.2414 100.442 92.6171C100.442 91.9929 99.9362 91.4868 99.312 91.4868C98.6877 91.4868 98.1816 91.9929 98.1816 92.6171C98.1816 93.2414 98.6877 93.7475 99.312 93.7475Z" fill="white" stroke="#1C75BC" stroke-width="2" stroke-miterlimit="10"/>
<path opacity="0.7" d="M13.7049 22.6662C14.8992 21.4891 16.8221 21.5035 17.9979 22.6964C19.1748 23.8902 19.1617 25.8127 17.9674 26.99C16.773 28.1673 14.8512 28.1527 13.6743 26.9598C12.4985 25.7658 12.5107 23.8435 13.7049 22.6662Z" fill="white" stroke="#1C75BC" stroke-width="2" stroke-miterlimit="10"/>
<path opacity="0.7" d="M2.03991 30.0136C2.48552 29.5751 3.20112 29.5802 3.6388 30.0246C4.07669 30.4693 4.07305 31.1851 3.62744 31.6239C3.18268 32.0624 2.46622 32.0573 2.02854 31.6123C1.59065 31.168 1.59494 30.4522 2.03991 30.0136Z" fill="white" stroke="#1C75BC" stroke-width="2" stroke-miterlimit="10"/>
<g opacity="0.7">
<g opacity="0.7">
<path opacity="0.7" d="M51.9022 59.2296C51.9022 59.2296 51.7605 59.1717 51.5098 59.0591" stroke="#1C75BC" stroke-miterlimit="10"/>
<path opacity="0.7" d="M50.9266 58.7877C47.5356 57.1562 36.8241 51.1402 43.64 42.9995C43.64 42.9995 61.6057 21.0459 48.4628 21.7923C44.9183 21.9937 36.0598 35.1041 54.9047 34.4488C54.9047 34.4488 84.3187 31.9353 60.1957 4.12109" stroke="#1C75BC" stroke-miterlimit="10" stroke-dasharray="4 3"/>
<path opacity="0.7" d="M59.9821 3.87602C59.8884 3.76901 59.7942 3.66158 59.6992 3.55371" stroke="#1C75BC" stroke-miterlimit="10"/>
<g opacity="0.7">
<path opacity="0.7" d="M62.5564 1.98431L56.7051 0.0673828L57.9104 5.91867L62.5564 1.98431Z" fill="#1C75BC"/>
</g>
</g>
</g>
<defs>
<linearGradient id="paint0_linear" x1="22.7597" y1="72.1678" x2="54.032" y2="72.1678" gradientUnits="userSpaceOnUse">
<stop stop-color="#1C75BC" stop-opacity="0.2"/>
<stop offset="1" stop-color="#1C75BC" stop-opacity="0.2"/>
</linearGradient>
<linearGradient id="paint1_linear" x1="53.9746" y1="72.3737" x2="85.2471" y2="72.3737" gradientUnits="userSpaceOnUse">
<stop stop-color="#1C75BC" stop-opacity="0.2"/>
<stop offset="1" stop-color="#1C75BC" stop-opacity="0.2"/>
</linearGradient>
</defs>
</svg>
