<svg width="33" height="33" viewBox="0 0 33 33" fill="none" xmlns="http://www.w3.org/2000/svg">
<g clip-path="url(#clip0)">
<path d="M7.24083 13.4269C7.88417 11.4805 9.12576 9.78699 10.7885 8.58797C12.4512 7.38895 14.4501 6.74566 16.5001 6.74988C18.8238 6.74988 20.9248 7.57488 22.5748 8.92513L27.3763 4.125C24.4503 1.57437 20.7007 0 16.5001 0C9.99633 0 4.39733 3.70975 1.70508 9.14375L7.24083 13.4269Z" fill="#EA4335"/>
<path d="M22.0553 24.7678C20.5566 25.7344 18.6535 26.25 16.5003 26.25C14.4585 26.2542 12.4672 25.6161 10.8081 24.4259C9.14909 23.2357 7.90647 21.5539 7.25617 19.6184L1.70117 23.8355C3.06413 26.5942 5.17342 28.9153 7.78943 30.5353C10.4054 32.1553 13.4233 33.0091 16.5003 32.9999C20.5332 32.9999 24.3859 31.5658 27.272 28.8749L22.0567 24.7678H22.0553Z" fill="#34A853"/>
<path d="M27.2717 28.8748C30.2899 26.0588 32.2492 21.8678 32.2492 16.4998C32.2492 15.5235 32.0994 14.4744 31.8752 13.4995H16.5V19.8754H25.3495C24.9136 22.019 23.7407 23.6786 22.0564 24.7676L27.2717 28.8748Z" fill="#4A90E2"/>
<path d="M7.25603 19.6187C6.91965 18.6134 6.74876 17.5602 6.75003 16.5002C6.75003 15.4249 6.92191 14.3923 7.24091 13.427L1.70516 9.14392C0.57268 11.4301 -0.0111099 13.9489 0.000160125 16.5002C0.000160125 19.1402 0.612035 21.6289 1.70104 23.8358L7.25603 19.6187Z" fill="#FBBC05"/>
</g>
<defs>
<clipPath id="clip0">
<rect width="33" height="33" fill="white"/>
</clipPath>
</defs>
</svg>
