<svg width="89" height="59" viewBox="0 0 89 59" fill="none" xmlns="http://www.w3.org/2000/svg">
<path d="M31.0199 35.211L27.357 51.0721C27.2435 51.5524 27.2776 52.0557 27.4547 52.5164C27.6317 52.977 27.9436 53.3735 28.3495 53.6542C28.7555 53.9348 29.2366 54.0865 29.7301 54.0894C30.2236 54.0923 30.7065 53.9464 31.1157 53.6706L44.5014 44.7468L57.887 53.6706C58.3057 53.9486 58.7996 54.0917 59.3021 54.0807C59.8046 54.0697 60.2917 53.9051 60.6978 53.6089C61.104 53.3128 61.4097 52.8994 61.5739 52.4244C61.7381 51.9493 61.7529 51.4354 61.6163 50.9517L57.12 35.2183L68.271 25.1834C68.6281 24.8618 68.8832 24.4426 69.0046 23.9776C69.126 23.5126 69.1085 23.0223 68.9542 22.5671C68.7998 22.112 68.5155 21.7121 68.1363 21.4168C67.7571 21.1216 67.2997 20.944 66.8206 20.9059L52.8056 19.7898L46.7409 6.36488C46.5475 5.9326 46.2332 5.56552 45.8358 5.30795C45.4384 5.05037 44.9749 4.91332 44.5014 4.91332C44.0278 4.91332 43.5644 5.05037 43.167 5.30795C42.7696 5.56552 42.4552 5.9326 42.2618 6.36488L36.1971 19.7898L22.1822 20.9035C21.7113 20.9408 21.2611 21.1129 20.8855 21.3994C20.5099 21.6858 20.2248 22.0744 20.0643 22.5187C19.9038 22.9629 19.8746 23.444 19.9803 23.9044C20.0861 24.3647 20.3222 24.7849 20.6605 25.1146L31.0199 35.211ZM38.0335 24.5762C38.4723 24.5416 38.8937 24.3897 39.2536 24.1362C39.6134 23.8827 39.8985 23.5371 40.0788 23.1356L44.5014 13.349L48.9239 23.1356C49.1043 23.5371 49.3893 23.8827 49.7492 24.1362C50.109 24.3897 50.5304 24.5416 50.9692 24.5762L60.7337 25.3506L52.6925 32.5879C51.9944 33.2173 51.7166 34.1858 51.9722 35.0905L55.0525 45.8703L45.8682 39.7466C45.4651 39.476 44.9906 39.3315 44.5051 39.3315C44.0196 39.3315 43.545 39.476 43.1419 39.7466L33.5446 46.1456L36.1258 34.97C36.2205 34.559 36.2078 34.1306 36.0889 33.7259C35.9701 33.3212 35.7492 32.9538 35.4473 32.6592L27.9789 25.3776L38.0335 24.5762Z" fill="#388ADB" fill-opacity="0.59"/>
<path d="M7.60268 47.7103L5.86435 55.2376C5.81052 55.4656 5.82668 55.7044 5.91072 55.923C5.99475 56.1416 6.14276 56.3298 6.33541 56.463C6.52806 56.5962 6.7564 56.6682 6.99059 56.6696C7.22479 56.671 7.45396 56.6017 7.64818 56.4708L14.0007 52.2358L20.3532 56.4708C20.5519 56.6028 20.7863 56.6707 21.0248 56.6654C21.2632 56.6602 21.4944 56.5821 21.6871 56.4416C21.8799 56.301 22.025 56.1048 22.1029 55.8794C22.1808 55.6539 22.1878 55.41 22.123 55.1805L19.9892 47.7138L25.2812 42.9515C25.4507 42.7989 25.5717 42.5999 25.6293 42.3792C25.687 42.1586 25.6786 41.9258 25.6054 41.7098C25.5322 41.4938 25.3972 41.3041 25.2173 41.1639C25.0373 41.0238 24.8202 40.9395 24.5928 40.9215L17.9417 40.3918L15.0635 34.0206C14.9717 33.8155 14.8226 33.6413 14.634 33.519C14.4454 33.3968 14.2254 33.3318 14.0007 33.3318C13.7759 33.3318 13.556 33.3968 13.3674 33.519C13.1788 33.6413 13.0296 33.8155 12.9378 34.0206L10.0597 40.3918L3.40852 40.9203C3.18505 40.938 2.97141 41.0197 2.79316 41.1557C2.61492 41.2916 2.47961 41.476 2.40342 41.6868C2.32724 41.8977 2.31341 42.126 2.36358 42.3445C2.41376 42.5629 2.52582 42.7623 2.68635 42.9188L7.60268 47.7103ZM10.9312 42.6633C11.1394 42.6469 11.3394 42.5748 11.5102 42.4545C11.681 42.3342 11.8163 42.1702 11.9018 41.9796L14.0007 37.3351L16.0995 41.9796C16.1851 42.1702 16.3204 42.3342 16.4912 42.4545C16.6619 42.5748 16.8619 42.6469 17.0702 42.6633L21.7042 43.0308L17.888 46.4655C17.5567 46.7641 17.4248 47.2238 17.5462 47.6531L19.008 52.769L14.6493 49.8628C14.458 49.7344 14.2328 49.6658 14.0024 49.6658C13.772 49.6658 13.5468 49.7344 13.3555 49.8628L8.80085 52.8996L10.0258 47.596C10.0708 47.4009 10.0647 47.1976 10.0083 47.0055C9.95195 46.8134 9.84709 46.6391 9.70385 46.4993L6.15951 43.0436L10.9312 42.6633Z" fill="#BADAFF"/>
<path d="M68.6027 47.7103L66.8643 55.2376C66.8105 55.4656 66.8267 55.7044 66.9107 55.923C66.9948 56.1416 67.1428 56.3298 67.3354 56.463C67.5281 56.5962 67.7564 56.6682 67.9906 56.6696C68.2248 56.671 68.454 56.6017 68.6482 56.4708L75.0007 52.2358L81.3532 56.4708C81.5519 56.6028 81.7863 56.6707 82.0248 56.6654C82.2632 56.6602 82.4944 56.5821 82.6871 56.4416C82.8799 56.301 83.025 56.1048 83.1029 55.8794C83.1808 55.6539 83.1878 55.41 83.123 55.1805L80.9892 47.7138L86.2812 42.9515C86.4507 42.7989 86.5717 42.5999 86.6293 42.3792C86.687 42.1586 86.6786 41.9258 86.6054 41.7098C86.5322 41.4938 86.3972 41.3041 86.2173 41.1639C86.0373 41.0238 85.8202 40.9395 85.5928 40.9215L78.9417 40.3918L76.0635 34.0206C75.9717 33.8155 75.8226 33.6413 75.634 33.519C75.4454 33.3968 75.2254 33.3318 75.0007 33.3318C74.7759 33.3318 74.556 33.3968 74.3674 33.519C74.1788 33.6413 74.0296 33.8155 73.9378 34.0206L71.0597 40.3918L64.4085 40.9203C64.185 40.938 63.9714 41.0197 63.7932 41.1557C63.6149 41.2916 63.4796 41.476 63.4034 41.6868C63.3272 41.8977 63.3134 42.126 63.3636 42.3445C63.4138 42.5629 63.5258 42.7623 63.6863 42.9188L68.6027 47.7103ZM71.9312 42.6633C72.1394 42.6469 72.3394 42.5748 72.5102 42.4545C72.681 42.3342 72.8163 42.1702 72.9018 41.9796L75.0007 37.3351L77.0995 41.9796C77.1851 42.1702 77.3204 42.3342 77.4912 42.4545C77.6619 42.5748 77.8619 42.6469 78.0702 42.6633L82.7042 43.0308L78.888 46.4655C78.5567 46.7641 78.4248 47.2238 78.5462 47.6531L80.008 52.769L75.6493 49.8628C75.458 49.7344 75.2328 49.6658 75.0024 49.6658C74.772 49.6658 74.5468 49.7344 74.3555 49.8628L69.8008 52.8996L71.0258 47.596C71.0708 47.4009 71.0647 47.1976 71.0083 47.0055C70.952 46.8134 70.8471 46.6391 70.7038 46.4993L67.1595 43.0436L71.9312 42.6633Z" fill="#BADAFF"/>
</svg>
