<svg width="52" height="41" viewBox="0 0 52 41" fill="none" xmlns="http://www.w3.org/2000/svg">
<path fill-rule="evenodd" clip-rule="evenodd" d="M23.6597 11.2403C23.6597 5.03244 28.9697 0 35.52 0C39.3659 0 42.4344 1.72181 44.4901 4.22365C46.6645 3.80127 48.749 3.03705 50.6573 1.96265C49.9184 4.14171 48.3715 5.99332 46.3031 7.17482L46.3107 7.1856C48.2743 6.96076 50.1917 6.46043 52 5.70103L51.9962 5.70822C50.718 7.52349 49.1136 9.12309 47.2627 10.4279C47.3613 11.0642 47.4144 11.7004 47.4144 12.3331C47.4144 25.5864 36.7602 41 17.1663 41C11.3886 41.0048 5.73176 39.4324 0.87211 36.4708C0.643324 36.3316 0.44878 36.1475 0.301668 35.9308C0.154555 35.7142 0.0583126 35.4701 0.0194638 35.2151C-0.0193849 34.9601 6.82482e-05 34.7001 0.0765047 34.4529C0.152941 34.2056 0.284574 33.9768 0.46248 33.782C0.63166 33.5155 0.878354 33.3008 1.173 33.1637C1.46765 33.0266 1.79776 32.973 2.12376 33.0092C5.59803 33.3974 9.06471 32.9948 12.1256 31.7295C10.6158 31.0973 9.26426 30.1697 8.15955 29.0075C7.05484 27.8453 6.22197 26.4749 5.71561 24.9861C5.62198 24.7091 5.60885 24.4134 5.6776 24.13C5.74635 23.8466 5.89443 23.586 6.10627 23.3757C4.85978 22.3389 3.86134 21.0618 3.17779 19.6298C2.49423 18.1978 2.14134 16.6439 2.14272 15.0722V14.9499C2.14263 14.5739 2.2808 14.2096 2.53345 13.9196C2.78611 13.6296 3.13747 13.4322 3.52712 13.3611C2.6672 11.7884 2.21966 10.0425 2.22237 8.27117C2.22237 6.5889 2.23375 4.46809 3.48161 2.55576C3.61493 2.35317 3.79392 2.18106 4.00573 2.05179C4.21755 1.92252 4.45693 1.83929 4.7067 1.80808C5.06887 1.69983 5.457 1.69712 5.82081 1.8003C6.18463 1.90348 6.50738 2.10781 6.74727 2.38681C10.9753 7.31605 17.0225 10.5376 23.6635 11.3985V11.2403H23.6597ZM17.1663 37.4054C14.2643 37.4074 11.382 36.9544 8.63612 36.0646C11.9389 35.5483 15.0542 34.2611 17.7011 32.319C17.9785 32.1128 18.1817 31.8302 18.2828 31.5101C18.3839 31.19 18.3779 30.8481 18.2657 30.5314C18.1534 30.2146 17.9404 29.9386 17.656 29.7412C17.3715 29.5438 17.0295 29.4347 16.677 29.429C15.4072 29.4073 14.1598 29.108 13.0322 28.5543C11.9045 28.0006 10.9271 27.2076 10.176 26.237C10.8967 26.1831 11.6021 26.0644 12.2849 25.8919C12.657 25.7976 12.9846 25.5868 13.2143 25.2937C13.444 25.0006 13.5623 24.6424 13.55 24.2775C13.5377 23.9126 13.3955 23.5624 13.1465 23.2838C12.8975 23.0052 12.5564 22.8146 12.1787 22.743C10.7357 22.466 9.39694 21.8288 8.30075 20.8973C7.20455 19.9659 6.39067 18.7739 5.94318 17.4446C6.70175 17.6171 7.49446 17.7214 8.30614 17.7465C8.67706 17.7584 9.04194 17.6553 9.34549 17.4529C9.64905 17.2506 9.87474 16.9599 9.98837 16.6251C10.102 16.2903 10.0974 15.9295 9.97517 15.5973C9.85299 15.2652 9.61991 14.9799 9.31125 14.7846C8.17946 14.07 7.25143 13.1015 6.6096 11.9653C5.96777 10.829 5.63201 9.56003 5.63216 8.27117C5.63216 7.66728 5.64354 7.13168 5.68147 6.64282C10.9887 11.7759 18.1418 14.8253 25.7154 15.1836C26.0079 15.1977 26.2998 15.1474 26.5683 15.0367C26.8368 14.926 27.0747 14.7578 27.2631 14.5454C27.4516 14.333 27.5856 14.0821 27.6547 13.8124C27.7237 13.5427 27.726 13.2615 27.6612 12.9909C27.3826 11.8685 27.3755 10.7009 27.6404 9.57552C27.9053 8.45014 28.4354 7.39613 29.1909 6.49236C29.9464 5.58859 30.9079 4.85848 32.0032 4.35666C33.0986 3.85485 34.2995 3.59433 35.5162 3.5946C40.1966 3.5946 43.6178 7.70322 43.6178 12.3367C43.6178 24.0407 34.2266 37.4054 17.1625 37.4054H17.1663Z" fill="#C2DBF9"/>
</svg>
